# xmcd
# Copyright (C) 1995-1998 Ti Kan
#
# Track frame offsets:
#       150
#       39756
#       62462
#       79501
#       101407
#       121070
#
# Disc length: 2017 seconds
#
# Revision: 0
# Processed by: cddbd v1.5.2PL0 Copyright (c) Steve Scherf et al.
# Submitted via: CD-Import v1.0
#
DISCID=3507df06
DTITLE=Jean Michel Jarre - Aero
DYEAR=1900
DGENRE=
TTITLE0=Oxygene 2
TTITLE1=Equinoxe 4
TTITLE2=Chronologie Pt.6
TTITLE3=Light My Sky
TTITLE4=Odyssey Overture
TTITLE5=Odysses Phase 2
EXTD=
EXTT0=
EXTT1=
EXTT2=
EXTT3=
EXTT4=
EXTT5=
PLAYORDER=
